<svg xmlns="http://www.w3.org/2000/svg" style="display: none;">
<symbol viewBox="0 0 117 22" id="logo">
  <g><g><path d="M1 1h17L8 18h9v4H0L10 6H1zm32 21c-6.075 0-11-4.925-11-11 0-.666.07-1.315.183-1.949l5.726 5.09c1.057 1.71 2.933 2.859 5.09 2.859a6 6 0 1 0 0-12c-2.243 0-4.176 1.246-5.205 3.07l-3.822-3.345C25.959 1.871 29.259 0 33 0c6.075 0 11 4.925 11 11s-4.925 11-11 11zm17 0V12l5 3v7zm0-22l14 11V0h5v22L50 6zm41 4H81v5h9v4h-9v5h10v4H76V0h15zm26 18h-6l-5-6.875L101 22h-6l8-11-8-11h6l5 6.875L111 0h6l-8 11z"/></g></g>
</symbol>

<symbol viewBox="0 0 12 21" id="down-arrow">
  <g><g><path d="M.09 14.632a.995.995 0 0 1 .922-.618h3.986V1.011a.998.998 0 0 1 1.993 0v13.003h3.987a1.002 1.002 0 0 1 .705 1.708l-4.984 5.003a.994.994 0 0 1-1.409 0L.307 15.722a1.002 1.002 0 0 1-.216-1.09zm3.327 1.383l2.578 2.588 2.577-2.588z"/></g></g>
</symbol>

<symbol viewBox="0 0 122.878 122.88" id="close">
  <g><path d="M1.426,8.313c-1.901-1.901-1.901-4.984,0-6.886c1.901-1.902,4.984-1.902,6.886,0l53.127,53.127l53.127-53.127 c1.901-1.902,4.984-1.902,6.887,0c1.901,1.901,1.901,4.985,0,6.886L68.324,61.439l53.128,53.128c1.901,1.901,1.901,4.984,0,6.886 c-1.902,1.902-4.985,1.902-6.887,0L61.438,68.326L8.312,121.453c-1.901,1.902-4.984,1.902-6.886,0 c-1.901-1.901-1.901-4.984,0-6.886l53.127-53.128L1.426,8.313L1.426,8.313z"/></g>
</symbol>

<symbol viewBox="0 0 512 243.58" id="next-arrow">
  <path d="M373.57 0 512 120.75 371.53 243.58l-20.92-23.91 94.93-83L0 137.09v-31.75l445.55-.41-92.89-81.02z"/>
</symbol>

<symbol viewBox="0 0 512 243.58" id="prev-arrow">
  <path fill-rule="nonzero" d="M138.43 243.58 0 122.84 140.47 0l20.92 23.91-94.92 83 445.53-.42v31.75l-445.54.41 92.89 81.02z"/>
</symbol>

<symbol viewBox="0 0 66.91 122.88" id="angle-right">
  <g><path d="M1.95,111.2c-2.65,2.72-2.59,7.08,0.14,9.73c2.72,2.65,7.08,2.59,9.73-0.14L64.94,66l-4.93-4.79l4.95,4.8 c2.65-2.74,2.59-7.11-0.15-9.76c-0.08-0.08-0.16-0.15-0.24-0.22L11.81,2.09c-2.65-2.73-7-2.79-9.73-0.14 C-0.64,4.6-0.7,8.95,1.95,11.68l48.46,49.55L1.95,111.2L1.95,111.2L1.95,111.2z"/></g>
</symbol>

<symbol viewBox="0 0 122.881 9.737" id="minus">
  <g><path d="M117.922,0.006C117.951,0.002,117.982,0,118.012,0c0.656,0,1.285,0.132,1.861,0.371c0.014,0.005,0.025,0.011,0.037,0.017 c0.584,0.248,1.107,0.603,1.543,1.039c0.881,0.88,1.428,2.098,1.428,3.441c0,0.654-0.133,1.283-0.371,1.859 c-0.248,0.6-0.609,1.137-1.057,1.583c-0.445,0.445-0.98,0.806-1.58,1.055v0.001c-0.576,0.238-1.205,0.37-1.861,0.37 c-0.029,0-0.061-0.002-0.09-0.006c-37.654,0-75.309,0.001-112.964,0.001c-0.029,0.004-0.059,0.006-0.09,0.006 c-0.654,0-1.283-0.132-1.859-0.371c-0.6-0.248-1.137-0.609-1.583-1.056C0.981,7.865,0.621,7.33,0.372,6.73H0.371 C0.132,6.154,0,5.525,0,4.869C0,4.215,0.132,3.586,0.371,3.01c0.249-0.6,0.61-1.137,1.056-1.583 c0.881-0.881,2.098-1.426,3.442-1.426c0.031,0,0.061,0.002,0.09,0.006C42.613,0.006,80.268,0.006,117.922,0.006L117.922,0.006z"/></g>
</symbol>

<symbol viewBox="0 0 122.881 122.88" id="plus">
  <g><path d="M56.573,4.868c0-0.655,0.132-1.283,0.37-1.859c0.249-0.6,0.61-1.137,1.056-1.583C58.879,0.545,60.097,0,61.44,0 c0.658,0,1.287,0.132,1.863,0.371c0.012,0.005,0.023,0.011,0.037,0.017c0.584,0.248,1.107,0.603,1.543,1.039 c0.881,0.88,1.426,2.098,1.426,3.442c0,0.03-0.002,0.06-0.006,0.089v51.62l51.619,0c0.029-0.003,0.061-0.006,0.09-0.006 c0.656,0,1.285,0.132,1.861,0.371c0.014,0.005,0.025,0.011,0.037,0.017c0.584,0.248,1.107,0.603,1.543,1.039 c0.881,0.88,1.428,2.098,1.428,3.441c0,0.654-0.133,1.283-0.371,1.859c-0.248,0.6-0.609,1.137-1.057,1.583 c-0.445,0.445-0.98,0.806-1.58,1.055v0.001c-0.576,0.238-1.205,0.37-1.861,0.37c-0.029,0-0.061-0.002-0.09-0.006l-51.619,0.001 v51.619c0.004,0.029,0.006,0.06,0.006,0.09c0,0.656-0.133,1.286-0.371,1.861c-0.006,0.014-0.012,0.025-0.018,0.037 c-0.248,0.584-0.602,1.107-1.037,1.543c-0.883,0.882-2.1,1.427-3.443,1.427c-0.654,0-1.283-0.132-1.859-0.371 c-0.6-0.248-1.137-0.609-1.583-1.056c-0.445-0.444-0.806-0.98-1.055-1.58h-0.001c-0.239-0.575-0.371-1.205-0.371-1.861 c0-0.03,0.002-0.061,0.006-0.09V66.303H4.958c-0.029,0.004-0.059,0.006-0.09,0.006c-0.654,0-1.283-0.132-1.859-0.371 c-0.6-0.248-1.137-0.609-1.583-1.056c-0.445-0.445-0.806-0.98-1.055-1.58H0.371C0.132,62.726,0,62.097,0,61.44 c0-0.655,0.132-1.283,0.371-1.859c0.249-0.6,0.61-1.137,1.056-1.583c0.881-0.881,2.098-1.426,3.442-1.426 c0.031,0,0.061,0.002,0.09,0.006l51.62,0l0-51.62C56.575,4.928,56.573,4.898,56.573,4.868L56.573,4.868z"/></g>
</symbol>

<symbol viewBox="0 0 404 511.5" id="totop">
  <path fill-rule="nonzero" d="m219.24 72.97.54 438.53h-34.95l-.55-442.88L25.77 241.96 0 218.39 199.73 0 404 222.89l-25.77 23.58z"/>
</symbol>

<symbol viewBox="0 0 512 410.73" id="mobile-filter">
  <path d="M335.62 410.73H164.96V239.89L13.31 59.96C7.33 52.52 3.19 44.79 1.29 37.65c-1.79-6.72-1.76-13.28.34-19.1 2.3-6.44 6.92-11.63 13.91-14.9C20.35 1.41 26.3.13 33.4.1L472.7.04c7.93-.29 14.95.96 20.74 3.44 7.02 2.97 12.28 7.87 15.44 14.17 3.05 6.1 3.93 13.27 2.34 21.06-1.5 7.24-5.17 15.11-11.32 23.16l-151.94 178.1v170.76h-12.34zm95.61-347.71-69.16 81.05-18.67-16.01 69.16-81.05 18.67 16.01zm-84.8 99.39-24.45 28.66-18.68-16.01 24.45-28.66 18.68 16.01z"/>
</symbol>
</svg>
